# xmcd
#
# Track frame offsets: 
#        150
#        13217
#        26217
#        38948
#        51940
#        67364
#        87807
#        101862
#        120800
#        133063
#        153704
#        167058
#
# Disc length: 2424 seconds
#
# Revision: 0
# Processed by: cddbd v1.5.1PL0 Copyright (c) Steve Scherf et al.
# Submitted via: ExactAudioCopy v0.95b2
#
DISCID=aa09760c
DTITLE=Ray Materick - Life and Times
DYEAR=2003
DGENRE=Crossover
TTITLE0=Emily
TTITLE1=Ashes and Dust
TTITLE2=Fish In The Ocean
TTITLE3=Talkin' About You
TTITLE4=You Babe
TTITLE5=Fleshpot
TTITLE6=Listen To Your Heart
TTITLE7=Wild World
TTITLE8=Sister Ruth
TTITLE9=Nothin' At All
TTITLE10=Never Shoulda Done It
TTITLE11=Red Hot Momma
EXTD=
EXTT0=
EXTT1=
EXTT2=
EXTT3=
EXTT4=
EXTT5=
EXTT6=
EXTT7=
EXTT8=
EXTT9=
EXTT10=
EXTT11=
PLAYORDER=
